<mxfile host="app.diagrams.net" modified="2024-05-04T14:57:47.237Z" agent="Mozilla/5.0 (X11; Linux x86_64) AppleWebKit/537.36 (KHTML, like Gecko) Chrome/119.0.0.0 Safari/537.36" version="23.0.2" etag="fjdXt641xNeoTknXHLGY" type="github">
  <diagram name="Page-1" id="RU7sFI4T7BgpD00KqAnl">
    <mxGraphModel>
      <root>
        <mxCell id="0" />
        <mxCell id="1" parent="0" />
      </root>
    </mxGraphModel>
  </diagram>
</mxfile>
